<svg xmlns="http://www.w3.org/2000/svg" xmlns:xlink="http://www.w3.org/1999/xlink" viewBox="0 0 228.11 227.38"><defs><style>.cls-1{fill:#fff;}.cls-2{fill:url(#linear-gradient);}.cls-3{fill:url(#linear-gradient-2);}.cls-4{fill:url(#linear-gradient-3);}</style><linearGradient id="linear-gradient" x1="56.48" y1="87.71" x2="310.45" y2="227.2" gradientUnits="userSpaceOnUse"><stop offset="0" stop-color="#d51c29"/><stop offset="1" stop-color="#ab121c"/></linearGradient><linearGradient id="linear-gradient-2" x1="52.44" y1="95.06" x2="306.41" y2="234.55" xlink:href="#linear-gradient"/><linearGradient id="linear-gradient-3" x1="68.85" y1="65.2" x2="322.82" y2="204.69" xlink:href="#linear-gradient"/></defs><title>Asset 3</title><g id="Layer_2" data-name="Layer 2"><g id="Layer_1-2" data-name="Layer 1"><path class="cls-1" d="M215.07,202.62H22.35v-172H215.07V115c.3,4.43,1.53,7.56,3.47,9.72Z"/><path class="cls-1" d="M67.09,112c-.46,2.77-.17,2.63-.66,4.82a41.58,41.58,0,0,0-1.17,12.51,64.8,64.8,0,0,1-.13,9.72,8.11,8.11,0,0,1-1.44,3.69c-1.07,1.61-3.46,1-4.33-.73a16,16,0,0,1-1.45-10c.47-3.28-.61-6.83-1.27-10.2-.17-.86-1.26-1.59-2-2.27-.35-.31-1.08-.23-1.39-.56-1.87-2-3-1-4.55.61-1.23,1.23-3.37,1.48-4.84,2.54-2.51,1.8-5.16,1.83-8,1.47a5.68,5.68,0,0,0-2.52.77c-2.27.94-4.48,2-6.8,2.83-.57.19-1.64-.44-2.17-1a19.23,19.23,0,0,1-2-3.15c1.9-1.07,3.67-2.67,5.7-3.11,8.13-1.77,15.44-5.36,22.58-9.42a6.83,6.83,0,0,1,1.77-.73c3.77-.89,7.57-1.68,11.33-2.63A45.72,45.72,0,0,0,68,105.52c1.67-.61,3.4-1.07,5-1.78a48.76,48.76,0,0,0,4.83-2.56A59.66,59.66,0,0,1,83.18,98c1.88-.84,4-1.1,5.94-1.87,3.4-1.35,6.69-3,10.08-4.34a29.8,29.8,0,0,1,4.16-1.09c.49-.12,1.09,0,1.46-.29,2.93-2.06,6.47-1.58,9.68-2.45,2.14-.58,4.28-1.22,6.38-1.92a3.34,3.34,0,0,1,4.18,1.6c1.8,3.71-.58,7.36-4.86,7.53a10.94,10.94,0,0,0-2.31.5c-2.92.78-5.84,1.55-8.74,2.37-1.25.35-2.47.78-3.7,1.2s-2.4.92-3.61,1.34a5.58,5.58,0,0,0-4.07,4.36c-.38,2.2-.49,4.44-.71,6.67-.27,2.65-.67,5.31-.74,8a14.29,14.29,0,0,0,.76,4.45c1.06,3.47-.21,6.43-2.37,8.83-.86,1-3.39,1.53-4.42,1a6.5,6.5,0,0,1-2.63-4.31,62,62,0,0,1-.28-9.16c0-3.4-.84-6.78.43-10.2.93-2.49-.88-4.54-3.72-4.16-3.67.49-7.48,1.06-10.35,3.7C72.15,111.14,69.83,111.69,67.09,112Z"/><path class="cls-1" d="M156.93,132.59c-.73,4.63-1.29,9.21-2.25,13.71-.42,2-1.65,3.74-2.56,5.58-.48,1-1.06,1.89-1.59,2.84-3.31,5.86-6.42,11.84-10,17.51-1.6,2.53-4.13,4.49-6.32,6.64a40.35,40.35,0,0,1-4.87,4.28,4.5,4.5,0,0,1-3.3.76c-.71-.19-1.41-1.57-1.57-2.52a80,80,0,0,1-1.11-9.2c-.06-1,1-2.1,1.08-3.18.15-3-.16-6,.07-9a50.94,50.94,0,0,1,1.43-8.71c.87-3.39,2.14-6.67,3.21-10a13.13,13.13,0,0,0,.26-1.71c.57-3.24,1.2-6.47,1.71-9.72.27-1.75.33-3.54.47-5.31,0-.28-.16-.61-.06-.85,1.05-2.49,2.15-5,3.21-7.46.25-.59.34-1.24.57-1.83a5,5,0,0,1,.89-1.86,43.53,43.53,0,0,1,4.89-4.1,2.73,2.73,0,0,1,2.45,0c1.74,1.09,3.2,2.63,4.95,3.7,2.66,1.62,4.48,3.58,5.07,6.82.42,2.29,1.76,4.4,2.34,6.68A66.31,66.31,0,0,1,156.93,132.59Zm-11.38-15.32c-2-.65-3.18.6-3.75,2.39a72.07,72.07,0,0,0-1.84,7.48c-.53,2.6-.66,5.3-1.36,7.85-1.11,4.06-2.65,8-3.83,12s-2.29,8.31-3.2,12.51a31.67,31.67,0,0,0-.78,7.38c.06,2.32,2.11,1.83,3.67,1.91s2.29-.41,2.46-2a6.39,6.39,0,0,1,1.06-2.25c.85-1.48,1.74-2.93,2.65-4.38,1.06-1.69,2.14-3.38,3.25-5,1-1.47,2.12-2.86,3-4.39a33.65,33.65,0,0,0,1.27-3.34c1.08-2.45,3.07-4.83,3.17-7.3.26-6.27.89-12.61-.82-18.85C149.69,118.23,149,117.36,145.55,117.27Z"/><path class="cls-1" d="M51.71,76.41c0-3.89,0-7.78,0-11.68a3.57,3.57,0,0,1,.56-1.59c2-3.55,4-7.13,6.11-10.61a46,46,0,0,1,4.43-6.22c1-1.13,2.43-2.74,3.88-.12.22.4,1.5.46,2.22.31,4.41-.93,8.19,1.11,12,2.58a48.76,48.76,0,0,1,6.79,3.63c2.13,1.23,2.88,5.12,2.53,7.37-.48,3-2.65,5.8-1.56,9.1a1.74,1.74,0,0,1-.14,1.25c-1.37,2.47-2.79,4.9-4.2,7.35-.14.25-.42.49-.43.74-.15,4-3.23,5-6.17,6.2a46.8,46.8,0,0,0-4.33,2.39c-2.66,1.47-5.37,3.24-8.51,2.32-2.21-.65-4.65-1-6.35-3.1a27.59,27.59,0,0,0-4.86-4.2A5.19,5.19,0,0,1,51.71,76.41ZM84,63.52a48.2,48.2,0,0,0-2.35-7.6c-1.36-2.88-4.38-5.62-8-4.23-2.49,1-5.62.43-7.4,3.32-1,1.57-3.31,2.55-3.72,4.14-.73,2.83-2.4,5.19-3,8.14a16.3,16.3,0,0,0,1.17,10.19c1,2.31,2.82,3.84,5.67,3.37a3.5,3.5,0,0,1,1.21.22,9.54,9.54,0,0,0,2.84.59c3.22-.36,5.22-2.48,6.82-5.09C78.24,75,79,73.1,80.36,72,82.82,70,83.94,67.63,84,63.52Z"/><path class="cls-1" d="M139.32,36.77c1,.2,2.82.46,4.56.9,1.41.36,3,4.06,2.67,6.17a41.62,41.62,0,0,0-.1,13.51c.46,3,2.55,4.42,5.23,3.12,2.36-1.14,4.73-1.9,7.29-1.39a3.13,3.13,0,0,1,2.17,1.79A2.1,2.1,0,0,1,159,63.48c-1.37-.07-2,.54-2.86,1.43a5.85,5.85,0,0,1-3.55,1.76c-2.78.1-5,1.34-7.33,2.57a2,2,0,0,1-1.42.23c-4.06-1.57-7.91-.16-11.84.64a70.37,70.37,0,0,1-10.12,1.51c-1.07.06-2.45-1.23-3.22-2.25-.23-.31.94-2.25,1.85-2.7,4.32-2.14,8.74-4.08,13.72-4.11,1.88,0,4.31-3.43,4.58-5.27.48-3.26-1.55-6-1.53-9.1,0-.84-.76-1.68-1.14-2.53a27.67,27.67,0,0,1-1.59-3.76C133.45,38.08,134.61,36.65,139.32,36.77Z"/><path class="cls-2" d="M176.27,177.57c.39-4.09.64-8.2,1.25-12.26.32-2.13,1.33-4.15,1.94-6.24a9.23,9.23,0,0,0,.28-2.29c.1-2.81,0-5.62.25-8.42.27-3.75.31-7.58,1.2-11.19.75-3.05,0-7.39.26-11.46a10.17,10.17,0,0,0,3.61-.47c3.7,0,4,.28,6-.81a11.17,11.17,0,0,1,1.94-1c2.46-.73,5-1.21,7.39-2.1,2.76-1,5.51-.77,8.32-.57a6.89,6.89,0,0,0,1.85-.46,3.74,3.74,0,0,1,1.61-.27c4.42-.69,6.57,2.07,7.93,12.13a46.11,46.11,0,0,0,.25,7.53c.21,3.74.43,7.47.69,11.21.36,5.11.67,10.22,1.2,15.31.19,1.83,1.11,3.56,1.43,5.39.51,2.9.78,5.85,1.2,8.77.27,1.84.64,3.66.95,5.49.1.56.16,1.14.21,1.71.26,3.07.4,6.15.79,9.2.26,2,1,4,1.24,6a2.51,2.51,0,0,1-1,1.86c-1.38,1-3,1.74-4.35,2.78a8.55,8.55,0,0,0-2.09,2.56c-1,1.68-2,2.76-4.21,2.79-3.43,0-6.85.6-10.28.73-2.12.08-4.44-.78-6.34-.19-3.1,1-5.88-.6-8.81-.28a14.81,14.81,0,0,0-2.15.15c-3,.79-5.83,2-8.83,2.41a58.14,58.14,0,0,1-9.3.28c-6.29-.08-12.62.16-18.84-.54-5.61-.63-11,.48-16.35,1.28-3.29.49-6.56,1.31-9.91,1.5-5.68.33-11.37.6-17.06.9-6.54.35-13.1-.57-19.64,1.05-4.08,1-8.44.89-12.66,1.37-2.35.27-4.69.74-7,1.13-4.75.8-9.47,1.81-14.25,2.33-2.54.28-5.18-.53-7.75-.41-3.42.16-6.81.75-10.22,1.15-2.64.32-5.31.46-7.9,1-6.33,1.32-12.67.42-19,.1-1.21-.06-2.69-1.56-3.43-2.77-1.43-2.35-2.06-5.23-3.7-7.38a5.23,5.23,0,0,1-.81-4.83c1.46-6.67.36-13.2-.68-19.77a38.29,38.29,0,0,1,0-3.84C1.27,184.6.95,181,.8,177.38c-.29-7.1-.37-14.21-.75-21.3-.27-5,.71-9.72,1.3-14.58.71-5.89.47-11.9.66-17.85,0-1.29.24-2.58.2-3.87-.15-4.06-.57-8.13-.5-12.19a55.73,55.73,0,0,1,1.18-8c.1-.63.62-1.31.48-1.84-1.1-4.13,0-8.15.39-12.22.34-3.22.27-6.48.54-9.7.21-2.55.75-5.08,1-7.63a64.33,64.33,0,0,0,.56-9.65,47.32,47.32,0,0,1,2-16.23c.39-1.34.58-2.74.92-4.1,1.11-4.46,5.16-6.44,8.07-9.34,2.64-2.63,5.7-4.83,8.39-7.41a8.38,8.38,0,0,1,6-2.53c1.72,0,3.49.14,4.61-1.72.22-.37,1.18-.32,1.8-.42a13.93,13.93,0,0,0,2.74-.39c1.31-.49,2.33-.49,3.3.66a2.56,2.56,0,0,0,1.47.54,22.17,22.17,0,0,1,2.74.3c2.83.84,5.35-.34,7.93-1.07a37.82,37.82,0,0,0,3.83-1.39c.43-.17,1-.44,1.15-.81,1-2.57,3.05-2,5.1-1.91,2.39.12,4.88-.51,7.17-.05,2.06.41,4.64-1,6.27,1.65.77,1.26,5.29.9,7.18-.13a5.8,5.8,0,0,1,3-1c2.27.22,4.43-1.64,6.73-.26.19.11.63-.26,1-.35,1.36-.38,2.71-.8,4.09-1.11a26.17,26.17,0,0,0,3.6-.64c2-.76,3.87-1.29,5.62.49a1,1,0,0,0,.56.31l15.82.56c.94,0,1.87.13,2.8.24,2.08.24,4.15.56,6.11-.63a4.55,4.55,0,0,1,1.84-.2c.06,0,.16.1.19.08,2.47-1.46,5.77,0,8-2.29a3.22,3.22,0,0,1,1.72-.56c1.91-.3,3.82-.61,5.75-.78,2.58-.24,5.2-.18,7.75-.59s4.78-1.27,7.19-1.86a32.33,32.33,0,0,1,5.47-1.06c2-.13,3.88-.16,5.75-1.38,1.16-.75,3-.66,4.55-.56,2.9.17,5.59,0,7.84-2.18.91-.87,3.48-.44,4.33.5a29.77,29.77,0,0,0,3.25,3.4,6.94,6.94,0,0,0,2.57.76l4.08,1c.13,0,.25.27.33.25,3.78-.82,4.12,3.23,6.37,4.59.67.4.82,1.65,1.22,2.5.21.44.34,1.13.68,1.26,1.94.76,1.78,2.17,1.61,3.85a17.39,17.39,0,0,0,.5,4,29.73,29.73,0,0,1,.48,3.64c.09,5.91,0,11.83.15,17.74.16,7.92.48,15.83.67,23.75.12,5.38.28,10.78.15,16.16-.11,4.47-.08,9.06-1.16,13.33-.73,2.85-.26,5.1-.32,8.09-.1,4.45-.9,6.4-1.75,9.7-1.32,1.57-2.8-.17-4.74-.27a58.54,58.54,0,0,0-8.46,0,36.05,36.05,0,0,1-6.64.64c-1.84.58-3.56,1.52-5.39,2.12a42.91,42.91,0,0,1-5.42,1.33c-2.33.43-4.49.49-4.46-1.82,0-3.09,0-6.18.19-9.25.1-1.44,1-2.85,1.07-4.28.15-6.32,1.92-12.35,3-18.5.74-4.18,1.58-8.34,2.29-12.53.87-5.15,1.66-10.32,2.45-15.49.49-3.22.41-3.25-2.7-4.21a4.7,4.7,0,0,1-1.53-1.13c-2.36-2.13-4.1-2-5.12,1a48.91,48.91,0,0,0-1.78,8.86q-1.35,9.18-2.46,18.4c-.29,2.36-.37,4.75-.44,7.13-.12,4-.14,7.92-.22,11.88a2.67,2.67,0,0,1-.19,1.27c-2.09,3.41-1.13,6.78-.29,10.33.41,1.74-.43,3.79-.74,5.69-.07.4-.36.78-.39,1.18-.2,2.76-.41,5.53-.5,8.3-.24,7.72-.44,15.45-.63,23.17-.09,3.42-.11,6.84-.24,10.25,0,.69-.48,1.35-.58,2-.26,2-.45,3.92-.65,5.88,0,.27.21.62.12.83-1.94,4.24.06,8.75-.91,13.07a3.83,3.83,0,0,0,.14,2.35c.46.93,1.15,2.12,2,2.4,1.23.41,3,.41,3.45-1.31.63-2.16,1-4.41,1.44-6.62ZM66.94,113c3.43-1.53,5.21-1.83,6.81-3.29,2.87-2.63,6.68-3.21,10.35-3.7,2.83-.38,4.64,1.67,3.72,4.16-1.27,3.42-.43,6.8-.43,10.2a62,62,0,0,0,.28,9.16,6.5,6.5,0,0,0,2.63,4.31c1,.57,3.55,0,4.42-1,2.16-2.4,3.43-5.36,2.37-8.83a14.29,14.29,0,0,1-.76-4.45c.07-2.66.48-5.31.74-8,.22-2.22.33-4.47.71-6.67a5.58,5.58,0,0,1,4.07-4.36c1.21-.42,2.4-.92,3.61-1.34s2.45-.85,3.7-1.2c2.91-.82,5.82-1.59,8.74-2.37a10.94,10.94,0,0,1,2.31-.5c4.28-.17,6.66-3.83,4.86-7.53a3.34,3.34,0,0,0-4.18-1.6c-2.11.7-4.24,1.34-6.38,1.92-3.21.87-6.76.39-9.68,2.45-.37.26-1,.17-1.46.29a29.8,29.8,0,0,0-4.16,1.09c-3.39,1.38-6.68,3-10.08,4.34-1.92.77-4.06,1-5.94,1.87a59.66,59.66,0,0,0-5.29,3.19,48.76,48.76,0,0,1-4.83,2.56c-1.62.71-3.36,1.17-5,1.78a45.72,45.72,0,0,1-4.29,1.63c-3.76,1-7.56,1.74-11.33,2.63a6.83,6.83,0,0,0-1.77.73c-7.14,4.07-14.45,7.65-22.58,9.42-2,.44-3.8,2-5.7,3.11a19.23,19.23,0,0,0,2,3.15c.53.55,1.6,1.18,2.17,1,2.32-.78,4.53-1.88,6.8-2.83a5.68,5.68,0,0,1,2.52-.77c2.86.36,5.51.33,8-1.47,1.47-1.06,3.61-1.31,4.84-2.54,1.57-1.57,2.68-2.61,4.55-.61.31.33,1,.24,1.39.56.76.68,1.86,1.41,2,2.27.65,3.38,1.73,6.92,1.27,10.2a16,16,0,0,0,1.45,10c.87,1.74,3.26,2.33,4.33.73A8.11,8.11,0,0,0,65.13,139a64.8,64.8,0,0,0,.13-9.72,41.58,41.58,0,0,1,1.17-12.51C66.93,114.59,66.48,115.74,66.94,113Zm90,19.62a66.31,66.31,0,0,0-1.05-7c-.58-2.28-1.92-4.39-2.34-6.68-.59-3.24-2.42-5.2-5.07-6.82-1.75-1.07-3.21-2.61-4.95-3.7a2.73,2.73,0,0,0-2.45,0,43.53,43.53,0,0,0-4.89,4.1,5,5,0,0,0-.89,1.86c-.23.6-.32,1.25-.57,1.83-1.06,2.49-2.16,5-3.21,7.46-.1.23.08.57.06.85-.14,1.77-.2,3.56-.47,5.31-.5,3.25-1.14,6.48-1.71,9.72a13.13,13.13,0,0,1-.26,1.71c-1.07,3.34-2.34,6.62-3.21,10a50.94,50.94,0,0,0-1.43,8.71c-.23,3,.08,6-.07,9-.05,1.08-1.14,2.14-1.08,3.18a80,80,0,0,0,1.11,9.2c.16.94.86,2.33,1.57,2.52a4.5,4.5,0,0,0,3.3-.76,40.35,40.35,0,0,0,4.87-4.28c2.19-2.14,4.72-4.1,6.32-6.64,3.59-5.68,6.7-11.66,10-17.51.53-.94,1.11-1.87,1.59-2.84.91-1.84,2.14-3.63,2.56-5.58C155.64,141.8,156.2,137.22,156.93,132.59ZM51.71,76.41a5.19,5.19,0,0,0,2,5.71,27.59,27.59,0,0,1,4.86,4.2c1.71,2.1,4.14,2.45,6.35,3.1,3.14.92,5.85-.85,8.51-2.32a46.8,46.8,0,0,1,4.33-2.39c2.94-1.24,6-2.22,6.17-6.2,0-.25.28-.49.43-.74,1.41-2.45,2.83-4.88,4.2-7.35a1.74,1.74,0,0,0,.14-1.25c-1.1-3.3,1.08-6.06,1.56-9.1.35-2.25-.4-6.14-2.53-7.37A48.76,48.76,0,0,0,81,49.08c-3.85-1.47-7.63-3.51-12-2.58-.71.15-2,.09-2.22-.31-1.46-2.62-2.9-1-3.88.12a46,46,0,0,0-4.43,6.22c-2.13,3.48-4.1,7.06-6.11,10.61a3.57,3.57,0,0,0-.56,1.59C51.69,68.63,51.71,72.52,51.71,76.41Zm-6.54,75.41-.39-.1c.1-1.15.2-2.31.28-3.46.14-1.94-1.36-2.45-2.73-2.84a2.59,2.59,0,0,0-3.44,1.49c-2.38,6.58-4.09,13.25-2.07,20.31a15.06,15.06,0,0,1,.44,3.43c.12,2.65,0,5.32.29,8,.33,3,1,5.91,1.51,8.87.32,2,.49,4.08.71,6.12a7.21,7.21,0,0,0,9.22,6,2.67,2.67,0,0,1,1.28-.14c3.14.76,6.05,0,9.05-.95,1.56-.51,3.45.12,5.14-.15,3.91-.62,7.79-1.41,11.66-2.24,2.42-.51,12.13-2.56,14.56-3,2.17-.42,4.41-.51,6.6-.83.5-.07,1.31-.44,1.36-.76.09-.64,0-1.69-.46-2-2.47-1.56-4.72-3.75-7.91-3.63-.9,0-2.24.44-2.57,1.09-1.12,2.2-10.3,3.47-12.32,3.5a7.9,7.9,0,0,0-2.36.63c-1.11.39-2.17.93-3.3,1.24-2.11.58-4.55.55-6.33,1.64-6.6,1.29-9.07,2.43-12.58-1.09-.25-.25-.52-.61-.83-.67-1.59-.3-1.43-1.42-1.52-2.63a22.23,22.23,0,0,0-.91-3.91c-.43-1.63-.89-3.25-1.32-4.88-.19-.72-.13-1.84-.58-2.12-1.84-1.12-1.42-2.77-1.46-4.42-.1-4.3-.29-8.6-.47-12.9a13.69,13.69,0,0,1-.19-2.95C44,156.22,44.62,154,45.17,151.82ZM139.32,36.77c-4.71-.12-5.88,1.3-4.81,5.13a27.67,27.67,0,0,0,1.59,3.76c.38.85,1.15,1.69,1.14,2.53,0,3.13,2,5.84,1.53,9.1-.27,1.84-2.69,5.26-4.58,5.27-5,0-9.4,2-13.72,4.11-.9.45-2.07,2.39-1.85,2.7.76,1,2.14,2.31,3.22,2.25A70.37,70.37,0,0,0,132,70.11c3.93-.8,7.78-2.22,11.84-.64a2,2,0,0,0,1.42-.23c2.31-1.23,4.55-2.48,7.33-2.57a5.85,5.85,0,0,0,3.55-1.76c.87-.89,1.49-1.5,2.86-1.43a2.1,2.1,0,0,0,2.17-2.61A3.13,3.13,0,0,0,159,59.08c-2.56-.51-4.93.25-7.29,1.39-2.68,1.3-4.78-.15-5.23-3.12a41.62,41.62,0,0,1,.1-13.51c.36-2.1-1.26-5.81-2.67-6.17C142.14,37.23,140.36,37,139.32,36.77Z"/><path class="cls-3" d="M145.55,117.27c3.44.1,4.14,1,5,4,1.71,6.24,1.08,12.58.82,18.85-.1,2.47-2.09,4.85-3.17,7.3a33.65,33.65,0,0,1-1.27,3.34c-.88,1.53-2,2.91-3,4.39-1.11,1.66-2.19,3.35-3.25,5-.91,1.44-1.79,2.9-2.65,4.38a6.39,6.39,0,0,0-1.06,2.25c-.18,1.6-1,2.09-2.46,2s-3.61.41-3.67-1.91a31.67,31.67,0,0,1,.78-7.38c.91-4.21,2-8.38,3.2-12.51s2.71-8,3.83-12c.7-2.55.83-5.25,1.36-7.85a72.07,72.07,0,0,1,1.84-7.48C142.37,117.87,143.57,116.62,145.55,117.27Z"/><path class="cls-4" d="M84,63.52c-.06,4.1-1.18,6.47-3.64,8.47-1.37,1.11-2.12,3-3.09,4.56-1.61,2.62-3.61,4.74-6.82,5.09a9.54,9.54,0,0,1-2.84-.59,3.5,3.5,0,0,0-1.21-.22c-2.85.48-4.69-1.06-5.67-3.37a16.3,16.3,0,0,1-1.17-10.19c.62-3,2.29-5.32,3-8.14C63,57.56,65.33,56.58,66.3,55c1.77-2.89,4.91-2.35,7.4-3.32,3.58-1.39,6.61,1.34,8,4.23A48.2,48.2,0,0,1,84,63.52Z"/></g></g></svg>